<svg width="114" height="1325" viewBox="0 0 114 1325" fill="none" xmlns="http://www.w3.org/2000/svg">
<g filter="url(#filter0_d_2_574)">
<rect x="6" width="108" height="1315" fill="#FAFAFA"/>
</g>
<g clip-path="url(#clip0_2_574)">
<path d="M60.5 77C53.5963 77 48 71.4037 48 64.5C48 57.5963 53.5963 52 60.5 52C67.4037 52 73 57.5963 73 64.5C73 71.4037 67.4037 77 60.5 77ZM52.1613 70.0312C52.9829 71.2605 54.0668 72.2923 55.3351 73.0523C56.6034 73.8123 58.0245 74.2816 59.4959 74.4264C60.9674 74.5712 62.4526 74.3879 63.8448 73.8897C65.2369 73.3915 66.5012 72.5908 67.5466 71.5452C68.5921 70.4997 69.3927 69.2353 69.8908 67.8432C70.3888 66.451 70.572 64.9657 70.4271 63.4943C70.2822 62.0228 69.8127 60.6018 69.0526 59.3336C68.2925 58.0654 67.2606 56.9815 66.0312 56.16C66.5702 58.0828 66.5875 60.1144 66.0814 62.0461C65.5752 63.9778 64.5639 65.7398 63.1513 67.1513C61.74 68.5637 59.9781 69.5749 58.0467 70.081C56.1152 70.5872 54.0838 70.57 52.1613 70.0312Z" fill="#2B2B2B"/>
</g>
<path fill-rule="evenodd" clip-rule="evenodd" d="M29 254C27.8954 254 27 254.895 27 256V276C27 277.105 27.8954 278 29 278H53.8039L59 287L64.1962 278H90C91.1046 278 92 277.105 92 276V256C92 254.895 91.1046 254 90 254H29Z" fill="#2B2B2B"/>
<path d="M42.9588 272H44.2756V268.195H48.6264V272H49.9474V263.273H48.6264V267.065H44.2756V263.273H42.9588V272ZM54.5199 272.132C56.3651 272.132 57.571 270.781 57.571 268.757C57.571 266.72 56.3651 265.369 54.5199 265.369C52.6747 265.369 51.4688 266.72 51.4688 268.757C51.4688 270.781 52.6747 272.132 54.5199 272.132ZM54.5241 271.062C53.3182 271.062 52.7557 270.01 52.7557 268.753C52.7557 267.5 53.3182 266.435 54.5241 266.435C55.7216 266.435 56.2841 267.5 56.2841 268.753C56.2841 270.01 55.7216 271.062 54.5241 271.062ZM58.9933 272H60.2674V267.964C60.2674 267.082 60.8853 266.469 61.6097 266.469C62.3171 266.469 62.8072 266.938 62.8072 267.649V272H64.0771V267.828C64.0771 267.04 64.5586 266.469 65.3896 266.469C66.0629 266.469 66.6168 266.844 66.6168 267.73V272H67.891V267.611C67.891 266.115 67.0558 265.369 65.8711 265.369C64.9293 265.369 64.2219 265.821 63.9066 266.52H63.8384C63.5529 265.804 62.9521 265.369 62.0785 265.369C61.2134 265.369 60.57 265.8 60.2972 266.52H60.2163V265.455H58.9933V272ZM72.4197 272.132C73.8473 272.132 74.8572 271.429 75.147 270.364L73.9411 270.146C73.7109 270.764 73.157 271.08 72.4325 271.08C71.3416 271.08 70.6087 270.372 70.5746 269.111H75.228V268.659C75.228 266.294 73.8132 265.369 72.3303 265.369C70.5064 265.369 69.3047 266.759 69.3047 268.77C69.3047 270.803 70.4893 272.132 72.4197 272.132ZM70.5788 268.156C70.63 267.227 71.3033 266.422 72.3388 266.422C73.3274 266.422 73.9751 267.155 73.9794 268.156H70.5788Z" fill="white"/>
<circle cx="60" cy="312" r="20" fill="#FFB400"/>
<g clip-path="url(#clip1_2_574)">
<path d="M66 318C66 318.199 65.921 318.39 65.7803 318.53C65.6397 318.671 65.4489 318.75 65.25 318.75H54.75C54.5511 318.75 54.3603 318.671 54.2197 318.53C54.079 318.39 54 318.199 54 318V311.25H51.75L59.4952 304.209C59.6333 304.083 59.8133 304.014 60 304.014C60.1867 304.014 60.3667 304.083 60.5048 304.209L68.25 311.25H66V318Z" fill="#2B2B2B"/>
</g>
<circle cx="60" cy="395" r="20" fill="#F0F0F6"/>
<g clip-path="url(#clip2_2_574)">
<path d="M68.5 390.287V390.5H63V386H63.2603C63.5338 386 63.7962 386.089 63.9896 386.247L68.198 389.69C68.3913 389.849 68.5 390.063 68.5 390.287ZM62.6562 391.625C62.0891 391.625 61.625 391.245 61.625 390.781V386H53.0312C52.4617 386 52 386.378 52 386.844V403.156C52 403.622 52.4617 404 53.0312 404H67.4688C68.0383 404 68.5 403.622 68.5 403.156V391.625H62.6562ZM57.294 400.08C57.2732 400.098 57.2482 400.113 57.2204 400.123C57.1926 400.134 57.1627 400.139 57.1322 400.14C57.1018 400.141 57.0714 400.137 57.0429 400.128C57.0144 400.119 56.9883 400.106 56.966 400.089L54.1788 397.951C54.1557 397.933 54.1372 397.912 54.1246 397.888C54.112 397.864 54.1055 397.838 54.1055 397.812C54.1055 397.787 54.112 397.761 54.1246 397.737C54.1372 397.713 54.1557 397.692 54.1788 397.674L56.966 395.536C56.9883 395.519 57.0144 395.506 57.0429 395.497C57.0714 395.488 57.1018 395.484 57.1322 395.485C57.1627 395.486 57.1926 395.491 57.2204 395.502C57.2482 395.512 57.2732 395.527 57.294 395.545L58.1353 396.279C58.1566 396.298 58.173 396.319 58.1838 396.343C58.1945 396.367 58.1993 396.392 58.1978 396.418C58.1963 396.443 58.1886 396.468 58.1751 396.491C58.1616 396.514 58.1426 396.535 58.1193 396.551L56.3678 397.812L58.1193 399.074C58.1426 399.09 58.1616 399.111 58.1751 399.134C58.1886 399.157 58.1963 399.182 58.1978 399.207C58.1993 399.233 58.1945 399.258 58.1838 399.282C58.173 399.306 58.1566 399.327 58.1353 399.346L57.294 400.08ZM59.4981 401.855L58.3185 401.575C58.2594 401.561 58.2095 401.528 58.1799 401.484C58.1502 401.44 58.1432 401.388 58.1603 401.339L60.8003 393.899C60.8175 393.851 60.8574 393.81 60.9113 393.786C60.9653 393.762 61.0287 393.756 61.0878 393.77L62.2674 394.05C62.2967 394.057 62.324 394.069 62.3478 394.084C62.3716 394.1 62.3914 394.119 62.406 394.141C62.4207 394.163 62.43 394.187 62.4334 394.212C62.4367 394.236 62.434 394.262 62.4256 394.286L59.7856 401.725C59.7771 401.749 59.7629 401.772 59.7439 401.791C59.7248 401.811 59.7013 401.827 59.6746 401.839C59.6479 401.851 59.6186 401.859 59.5883 401.861C59.558 401.864 59.5274 401.862 59.4981 401.855ZM66.4071 397.951L63.6199 400.089C63.5977 400.106 63.5716 400.119 63.5431 400.128C63.5145 400.137 63.4842 400.141 63.4537 400.14C63.4233 400.139 63.3933 400.134 63.3655 400.123C63.3378 400.113 63.3128 400.098 63.2919 400.08L62.4506 399.346C62.4293 399.327 62.4129 399.306 62.4021 399.282C62.3914 399.258 62.3866 399.232 62.3881 399.207C62.3896 399.182 62.3973 399.157 62.4108 399.134C62.4243 399.111 62.4433 399.09 62.4666 399.074L64.2182 397.812L62.4666 396.551C62.4433 396.535 62.4243 396.514 62.4108 396.491C62.3974 396.468 62.3896 396.443 62.3882 396.418C62.3867 396.392 62.3914 396.367 62.4022 396.343C62.4129 396.319 62.4294 396.298 62.4506 396.279L63.292 395.545C63.3128 395.527 63.3378 395.512 63.3656 395.502C63.3934 395.491 63.4233 395.486 63.4538 395.485C63.4842 395.484 63.5146 395.488 63.5431 395.497C63.5716 395.506 63.5977 395.519 63.62 395.536L66.4072 397.674C66.4303 397.692 66.4488 397.713 66.4614 397.737C66.474 397.761 66.4805 397.787 66.4805 397.812C66.4805 397.838 66.474 397.864 66.4613 397.888C66.4487 397.912 66.4303 397.933 66.4071 397.951Z" fill="#767676"/>
</g>
<circle cx="60" cy="478" r="20" fill="#F0F0F6"/>
<g clip-path="url(#clip3_2_574)">
<path d="M63.7636 480.272L60.25 483.626L56.7364 480.272C54.103 480.381 52 482.438 52 484.976V485.313C52 486.245 52.7919 487.001 53.7679 487.001H66.7321C67.7081 487.001 68.5 486.245 68.5 485.313V484.976C68.5 482.438 66.397 480.381 63.7636 480.272ZM52.5009 471.806L52.7366 471.859V473.912C52.4788 474.06 52.2946 474.317 52.2946 474.626C52.2946 474.921 52.4641 475.167 52.7035 475.318L52.1289 477.509C52.0663 477.751 52.2063 478.001 52.4088 478.001H53.9483C54.1509 478.001 54.2908 477.751 54.2282 477.509L53.6537 475.318C53.8931 475.167 54.0625 474.921 54.0625 474.626C54.0625 474.317 53.8783 474.06 53.6205 473.912V472.063L56.0513 472.622C55.7346 473.227 55.5357 473.902 55.5357 474.626C55.5357 477.111 57.6461 479.126 60.25 479.126C62.8539 479.126 64.9643 477.111 64.9643 474.626C64.9643 473.902 64.7691 473.227 64.4487 472.622L67.9954 471.806C68.6657 471.652 68.6657 470.854 67.9954 470.699L60.9829 469.082C60.5041 468.973 59.9996 468.973 59.5208 469.082L52.5009 470.695C51.8343 470.85 51.8343 471.652 52.5009 471.806Z" fill="#767676"/>
</g>
<circle cx="60" cy="561" r="20" fill="#F0F0F6"/>
<g clip-path="url(#clip4_2_574)">
<path d="M57.75 561.75V564H62.25V561.75H67.5V567C67.5 567.199 67.421 567.39 67.2803 567.53C67.1397 567.671 66.9489 567.75 66.75 567.75H53.25C53.0511 567.75 52.8603 567.671 52.7197 567.53C52.579 567.39 52.5 567.199 52.5 567V561.75H57.75ZM59.25 560.25H60.75V562.5H59.25V560.25ZM56.25 555.75V553.5C56.25 553.301 56.329 553.11 56.4697 552.97C56.6103 552.829 56.8011 552.75 57 552.75H63C63.1989 552.75 63.3897 552.829 63.5303 552.97C63.671 553.11 63.75 553.301 63.75 553.5V555.75H66.75C66.9489 555.75 67.1397 555.829 67.2803 555.97C67.421 556.11 67.5 556.301 67.5 556.5V560.25H62.25V558.75H57.75V560.25H52.5V556.5C52.5 556.301 52.579 556.11 52.7197 555.97C52.8603 555.829 53.0511 555.75 53.25 555.75H56.25ZM57.75 554.25V555.75H62.25V554.25H57.75Z" fill="#767676"/>
</g>
<circle cx="60" cy="644" r="20" fill="#F0F0F6"/>
<g clip-path="url(#clip5_2_574)">
<path d="M66.75 636.5C55.5 636.5 54 647 53.25 651.5H54.7485C55.248 649 56.4983 647.625 58.5 647.375C61.5 647 63.75 644.375 64.5 642.125L63.375 641.375L64.125 640.625C64.875 639.875 65.628 638.75 66.75 636.5Z" fill="#767676"/>
</g>
<circle cx="60" cy="727" r="20" fill="#F0F0F6"/>
<g clip-path="url(#clip6_2_574)">
<path d="M55.8412 732.25L52.5 734.875V721C52.5 720.801 52.579 720.61 52.7197 720.47C52.8603 720.329 53.0511 720.25 53.25 720.25H66.75C66.9489 720.25 67.1397 720.329 67.2803 720.47C67.421 720.61 67.5 720.801 67.5 721V731.5C67.5 731.699 67.421 731.89 67.2803 732.03C67.1397 732.171 66.9489 732.25 66.75 732.25H55.8412Z" fill="#767676"/>
</g>
<defs>
<filter id="filter0_d_2_574" x="0" y="-10" width="128" height="1335" filterUnits="userSpaceOnUse" color-interpolation-filters="sRGB">
<feFlood flood-opacity="0" result="BackgroundImageFix"/>
<feColorMatrix in="SourceAlpha" type="matrix" values="0 0 0 0 0 0 0 0 0 0 0 0 0 0 0 0 0 0 127 0" result="hardAlpha"/>
<feOffset dx="4"/>
<feGaussianBlur stdDeviation="5"/>
<feColorMatrix type="matrix" values="0 0 0 0 0.184314 0 0 0 0 0.478431 0 0 0 0 0.976471 0 0 0 0.1 0"/>
<feBlend mode="normal" in2="BackgroundImageFix" result="effect1_dropShadow_2_574"/>
<feBlend mode="normal" in="SourceGraphic" in2="effect1_dropShadow_2_574" result="shape"/>
</filter>
<clipPath id="clip0_2_574">
<rect width="30" height="30" fill="white" transform="translate(45 50)"/>
</clipPath>
<clipPath id="clip1_2_574">
<rect width="18" height="18" fill="white" transform="translate(51 303)"/>
</clipPath>
<clipPath id="clip2_2_574">
<rect width="16.5" height="18" fill="white" transform="translate(52 386)"/>
</clipPath>
<clipPath id="clip3_2_574">
<rect width="18" height="18" fill="white" transform="translate(51 469)"/>
</clipPath>
<clipPath id="clip4_2_574">
<rect width="18" height="18" fill="white" transform="translate(51 552)"/>
</clipPath>
<clipPath id="clip5_2_574">
<rect width="18" height="18" fill="white" transform="translate(51 635)"/>
</clipPath>
<clipPath id="clip6_2_574">
<rect width="18" height="18" fill="white" transform="translate(51 718)"/>
</clipPath>
</defs>
</svg>
